#!OML:ASF H:\Terrain\Patient Classification 1\Terrain2\Thursday\justin.ASF
:FULLY-SPECIFIED
:DEGREES
3709
root -1.52619 20.7749 7.64591 2523.26 184.41 -0.290053
lowerback 10.2839 -1.07636 -4.31106
upperback 2.94983 -2.07659 2.24419
thorax -2.45335 -1.15067 5.02919
lowerneck -15.1252 -4.13621 -8.14878
upperneck 37.2391 -1.3367 4.12063
head 15.9044 0.0529407 3.33467
rclavicle 1.32192e-014 -2.5842e-014
rhumerus -36.0284 -13.3678 -78.2408
rradius 26.4514
rwrist -8.28541
rhand -19.4787 11.3835
rfingers 7.12502
rthumb 6.84304 -18.4859
lclavicle 1.32192e-014 -2.5842e-014
lhumerus -31.5144 1.17687 88.0809
lradius 30.8726
lwrist 4.01892
lhand -18.0455 24.6818
lfingers 7.12502
lthumb 8.22645 54.5017
rfemur -58.4129 -12.1464 25.7688
rtibia 83.1773
rfoot -22.0914 2.54836
rtoes 13.457
lfemur 11.1644 -0.0377172 -22.5218
ltibia 7.633
lfoot -9.19398 -6.79461
ltoes 2.02492
3710
root -1.51761 20.8015 7.56124 2523.4 184.475 -0.0184336
lowerback 10.1969 -1.10607 -3.94631
upperback 3.00199 -2.08052 2.3274
thorax -2.36112 -1.15998 4.90484
lowerneck -15.2335 -4.13636 -8.07712
upperneck 37.004 -1.46908 4.20227
head 15.8194 -0.000663481 3.31768
rclavicle 2.3059e-014 1.47101e-014
rhumerus -35.9186 -13.5028 -78.2788
rradius 26.6045
rwrist -8.55912
rhand -20.0083 11.9891
rfingers 7.12502
rthumb 6.33175 -17.8963
lclavicle 2.3059e-014 1.47101e-014
lhumerus -31.4068 1.34055 87.9981
lradius 30.7324
lwrist 3.27814
lhand -14.2019 28.1036
lfingers 7.12502
lthumb 11.9344 57.7435
rfemur -57.8771 -12.0547 26.1091
rtibia 82.8938
rfoot -22.8412 2.34173
rtoes 13.0095
lfemur 11.0032 -0.085103 -22.071
ltibia 8.1607
lfoot -8.93679 -7.07889
ltoes 1.24114
3711
root -1.50235 20.822 7.47916 2523.52 184.473 0.190763
lowerback 10.2157 -1.08035 -3.75252
upperback 3.0045 -2.02878 2.43038
thorax -2.37782 -1.13613 4.89783
lowerneck -15.2823 -4.13255 -8.01485
upperneck 36.834 -1.54713 4.23647
head 15.7496 -0.0319635 3.29614
rclavicle -8.24956e-015 -1.07344e-014
rhumerus -35.7907 -13.9588 -78.0969
rradius 26.6279
rwrist -8.38816
rhand -19.9373 11.8754
rfingers 7.12502
rthumb 6.40038 -18.0079
lclavicle -8.24956e-015 -1.07344e-014
lhumerus -31.3797 1.27375 88.1169
lradius 30.5904
lwrist 3.26438
lhand -18.9802 23.2738
lfingers 7.12502
lthumb 7.32424 53.127
rfemur -57.3677 -11.8788 26.4349
rtibia 82.5969
rfoot -23.2894 1.79082
rtoes 12.3592
lfemur 10.7488 -0.0718067 -21.6339
ltibia 8.79547
lfoot -8.58687 -7.44865
ltoes 0.723053
3712
root -1.48556 20.8571 7.39677 2523.87 184.495 0.199725
lowerback 10.0729 -1.0938 -3.73655
upperback 2.933 -2.03102 2.50574
thorax -2.37091 -1.13298 4.96436
lowerneck -15.5448 -4.17806 -8.14637
upperneck 36.8844 -1.61238 4.34098
head 15.848 -0.0717441 3.35651
rclavicle -1.99779e-014 -5.96354e-015
rhumerus -35.6971 -14.0663 -77.9605
rradius 26.8172
rwrist -8.36311
rhand -19.5418 11.2967
rfingers 7.12502
rthumb 6.7821 -18.5747
lclavicle -1.99779e-014 -5.96354e-015
lhumerus -31.4054 1.40049 88.2256
lradius 30.5403
lwrist 3.09255
lhand -16.6679 24.7046
lfingers 7.12502
lthumb 9.55578 54.4679
rfemur -57.1299 -11.7219 26.5405
rtibia 82.2255
rfoot -23.5758 1.51263
rtoes 12.6618
lfemur 10.3548 -0.0910264 -21.454
ltibia 9.23853
lfoot -7.80175 -7.78229
ltoes 2.35382
3713
root -1.47433 20.9052 7.30658 2524.15 184.43 0.437246
lowerback 9.91453 -1.12431 -3.42055
upperback 2.86874 -2.02917 2.61958
thorax -2.35772 -1.13028 4.89931
lowerneck -15.5882 -4.19464 -8.29138
upperneck 36.6845 -1.68648 4.42765
head 15.768 -0.127241 3.39259
rclavicle 1.59028e-014 -6.36111e-015
rhumerus -35.6588 -14.1453 -77.8519
rradius 27.0313
rwrist -8.44622
rhand -19.5451 11.2769
rfingers 7.12502
rthumb 6.77893 -18.5946
lclavicle 1.59028e-014 -6.36111e-015
lhumerus -31.6261 1.4311 88.3329
lradius 30.6867
lwrist 3.02366
lhand -14.4823 26.3004
lfingers 7.12502
lthumb 11.664 55.9558
rfemur -56.7172 -11.4125 26.7611
rtibia 81.7145
rfoot -23.9903 1.65391
rtoes 14.2182
lfemur 10.1885 0.00139515 -21.1243
ltibia 9.47371
lfoot -6.86906 -7.95092
ltoes 2.25389
3714
root -1.46685 20.9558 7.21734 2524.25 184.344 0.811887
lowerback 10.0466 -1.18191 -2.95306
upperback 2.75641 -2.05836 2.75758
thorax -2.55585 -1.13919 4.79002
lowerneck -15.3576 -4.12193 -8.34638
upperneck 36.3706 -1.65369 4.4636
head 15.5535 -0.127464 3.40217
rclavicle 4.17448e-015 -3.02153e-014
rhumerus -35.6789 -14.2442 -77.7372
rradius 27.0113
rwrist -8.55285
rhand -20.0092 11.7465
rfingers 7.12502
rthumb 6.33094 -18.1389
lclavicle 4.17448e-015 -3.02153e-014
lhumerus -31.9776 1.50835 88.455
lradius 30.7791
lwrist 3.33587
lhand -15.836 25.2589
lfingers 7.12502
lthumb 10.3584 54.9838
rfemur -55.9886 -11.0255 27.0339
rtibia 81.0878
rfoot -24.5752 1.79671
rtoes 14.8127
lfemur 10.2947 0.122082 -20.591
ltibia 9.46851
lfoot -5.55514 -8.44475
ltoes -0.721821
3715
root -1.45977 21.0073 7.12874 2524.46 184.295 1.09903
lowerback 10.0057 -1.25637 -2.5604
upperback 2.67842 -2.11336 2.87291
thorax -2.6186 -1.1651 4.69464
lowerneck -15.4248 -4.04731 -8.35653
upperneck 36.3398 -1.57232 4.52151
head 15.5466 -0.0918414 3.44072
rclavicle 4.87022e-014 -2.10712e-014
rhumerus -35.5867 -13.9566 -77.8453
rradius 27.1692
rwrist -9.03586
rhand -20.548 11.5534
rfingers 7.12502
rthumb 5.81076 -18.3469
lclavicle 4.87022e-014 -2.10712e-014
lhumerus -32.0658 1.77481 88.5486
lradius 30.7633
lwrist 3.53739
lhand -17.8389 23.7506
lfingers 7.12502
lthumb 8.42579 53.5626
rfemur -55.2848 -10.6754 27.2632
rtibia 80.4007
rfoot -25.2143 1.79339
rtoes 14.2922
lfemur 10.4151 0.193899 -20.0826
ltibia 9.12723
lfoot -3.93836 -9.09703
ltoes -0.313138
3716
root -1.4536 21.061 7.02985 2524.76 184.181 1.06783
lowerback 9.69673 -1.25044 -2.42154
upperback 2.71083 -2.08695 2.89051
thorax -2.42144 -1.15687 4.61743
lowerneck -15.8661 -4.06285 -8.28758
upperneck 36.477 -1.56846 4.43995
head 15.7178 -0.101657 3.40232
rclavicle -5.96354e-015 -7.95139e-015
rhumerus -35.4232 -13.8457 -77.9099
rradius 27.5842
rwrist -9.34747
rhand -20.7254 11.032
rfingers 7.12502
rthumb 5.63948 -18.873
lclavicle -5.96354e-015 -7.95139e-015
lhumerus -32.0371 1.43543 88.808
lradius 30.991
lwrist 3.82231
lhand -20.8398 23.9468
lfingers 7.12502
lthumb 5.52904 53.8547
rfemur -54.6413 -10.4463 27.1859
rtibia 79.7355
rfoot -25.7754 2.05076
rtoes 15.0598
lfemur 10.545 0.321397 -20.0661
ltibia 8.75399
lfoot -2.538 -9.25158
ltoes -2.67931
3717
root -1.44485 21.1251 6.92663 2524.94 184.174 0.941512
lowerback 9.61482 -1.15129 -2.24347
upperback 2.79414 -1.94293 2.78185
thorax -2.31366 -1.08948 4.38102
lowerneck -16.4585 -4.2059 -8.03848
upperneck 36.5582 -1.84756 4.37472
head 15.9185 -0.20916 3.2845
rclavicle 2.38542e-015 -1.27222e-014
rhumerus -35.3233 -14.3425 -77.8749
rradius 27.969
rwrist -9.38261
rhand -20.7274 10.8363
rfingers 7.12502
rthumb 5.63753 -19.0687
lclavicle 2.38542e-015 -1.27222e-014
lhumerus -31.9529 0.476135 89.0113
lradius 30.7221
lwrist 4.45362
lhand -21.2084 22.9713
lfingers 7.12502
lthumb 5.17309 52.8881
rfemur -53.8684 -10.4103 27.0493
rtibia 79.0495
rfoot -26.1581 2.07266
rtoes 15.2815
lfemur 10.6322 0.334349 -20.1054
ltibia 8.6214
lfoot -1.02327 -9.16414
ltoes -4.36071
3718
root -1.43861 21.1877 6.82667 2525.11 184.178 0.919564
lowerback 9.60715 -1.2537 -2.22271
upperback 2.63142 -2.06258 2.88318
thorax -2.46418 -1.13959 4.4924
lowerneck -16.1518 -4.11898 -8.14172
upperneck 36.3637 -1.71929 4.36428
head 15.738 -0.17273 3.30848
rclavicle 2.38542e-014 -3.49861e-014
rhumerus -35.4488 -14.0152 -77.7883
rradius 28.1934
rwrist -9.49178
rhand -20.7518 10.8491
rfingers 7.12502
rthumb 5.61397 -19.0565
lclavicle 2.38542e-014 -3.49861e-014
lhumerus -32.3882 0.791137 89.0564
lradius 30.7074
lwrist 3.98373
lhand -18.6156 24.0724
lfingers 7.12502
lthumb 7.6762 53.9131
rfemur -53.1525 -10.3904 27.0702
rtibia 78.331
rfoot -26.4507 1.76785
rtoes 14.6173
lfemur 10.5902 0.340896 -19.9729
ltibia 8.62636
lfoot 0.549635 -9.29841
ltoes -5.27216
3719
root -1.43361 21.2484 6.72679 2525.34 184.036 0.76146
lowerback 9.48795 -1.33495 -2.34549
upperback 2.49326 -2.16623 2.95301
thorax -2.52468 -1.18269 4.64547
lowerneck -15.8512 -4.01546 -8.35432
upperneck 36.141 -1.5459 4.37169
head 15.5454 -0.132388 3.36495
rclavicle -3.08116e-015 -5.56597e-015
rhumerus -35.3899 -13.7884 -77.6685
rradius 28.3099
rwrist -9.47249
rhand -20.4949 10.8763
rfingers 7.12502
rthumb 5.86199 -19.0226
lclavicle -3.08116e-015 -5.56597e-015
lhumerus -32.7375 1.38785 89.0642
lradius 30.5997
lwrist 3.53006
lhand -16.8991 24.0921
lfingers 7.12502
lthumb 9.33272 53.8655
rfemur -52.5341 -10.293 26.9309
rtibia 77.6225
rfoot -26.8551 1.72013
rtoes 14.932
lfemur 10.4046 0.482564 -20.0082
ltibia 8.76846
lfoot 2.25428 -9.49954
ltoes -5.4928
3720
root -1.42268 21.3158 6.62561 2525.59 183.886 0.959665
lowerback 9.31366 -1.42349 -2.14071
upperback 2.3783 -2.25501 3.13569
thorax -2.53946 -1.22515 4.72628
lowerneck -15.783 -3.89179 -8.56699
upperneck 36.0868 -1.29155 4.34501
head 15.485 -0.0608018 3.43127
rclavicle 1.11319e-014 -9.93923e-015
rhumerus -35.3193 -13.1033 -77.7177
rradius 28.5207
rwrist -9.98094
rhand -20.2164 10.8718
rfingers 7.12502
rthumb 6.13085 -19.0195
lclavicle 1.11319e-014 -9.93923e-015
lhumerus -33.0261 1.78758 89.1303
lradius 30.3959
lwrist 3.465
lhand -17.6529 22.5603
lfingers 7.12502
lthumb 8.60532 52.365
rfemur -51.8744 -10.0625 27.2013
rtibia 76.8626
rfoot -27.1247 1.68539
rtoes 15.3952
lfemur 10.0098 0.661463 -19.5905
ltibia 9.04583
lfoot 4.21617 -9.67259
ltoes -6.15834
3721
root -1.41496 21.3876 6.52123 2525.79 183.804 1.1783
lowerback 9.07492 -1.49595 -1.82434
upperback 2.3681 -2.32321 3.27801
thorax -2.41794 -1.26544 4.6929
lowerneck -16.0213 -3.7809 -8.56143
upperneck 36.1354 -1.0622 4.19515
head 15.5446 0.00847661 3.40838
rclavicle -3.77691e-015 -3.10104e-014
rhumerus -35.1778 -12.4179 -77.884
rradius 28.7484
rwrist -10.5123
rhand -20.291 11.4761
rfingers 7.12502
rthumb 6.05887 -18.4173
lclavicle -3.77691e-015 -3.10104e-014
lhumerus -33.1328 1.98587 89.1985
lradius 30.2693
lwrist 3.29141
lhand -18.9909 21.4823
lfingers 7.12502
lthumb 7.31393 51.3359
rfemur -51.1189 -9.88708 27.4056
rtibia 76.0484
rfoot -27.1632 1.89302
rtoes 16.6904
lfemur 9.711 0.781227 -19.1827
ltibia 9.27439
lfoot 6.25479 -9.93764
ltoes -7.83189
3722
root -1.41292 21.4606 6.41647 2525.97 183.664 0.996457
lowerback 8.89005 -1.43754 -1.66439
upperback 2.37879 -2.22591 3.13417
thorax -2.32568 -1.21534 4.43259
lowerneck -16.2468 -3.81951 -8.2883
upperneck 36.1385 -1.15526 4.02683
head 15.601 -0.0240035 3.27122
rclavicle 2.42517e-014 3.85642e-014
rhumerus -35.065 -12.8471 -77.883
rradius 28.8377
rwrist -10.3805
rhand -20.5666 12.0027
rfingers 7.12502
rthumb 5.79281 -17.8981
lclavicle 2.42517e-014 3.85642e-014
lhumerus -33.2339 1.60043 89.2522
lradius 30.2874
lwrist 3.32151
lhand -19.3697 21.6224
lfingers 7.12502
lthumb 6.94824 51.4883
rfemur -50.2913 -9.65713 27.0783
rtibia 75.23
rfoot -27.3215 2.11953
rtoes 17.8892
lfemur 9.2279 0.926791 -19.2287
ltibia 10.0527
lfoot 8.38755 -9.99087
ltoes -6.40375
3723
root -1.4096 21.5252 6.31739 2526.13 183.396 0.932423
lowerback 8.86229 -1.33045 -1.40168
upperback 2.31199 -2.05136 2.99679
thorax -2.4093 -1.12186 4.12241
lowerneck -16.3297 -3.86626 -8.06432
upperneck 36.1163 -1.29108 3.97255
head 15.6154 -0.0607107 3.18294
rclavicle 2.18663e-014 -4.49253e-014
rhumerus -35.0978 -13.3386 -77.8662
rradius 28.9338
rwrist -10.4166
rhand -20.8451 11.7945
rfingers 7.12502
rthumb 5.52391 -18.1135
lclavicle 2.18663e-014 -4.49253e-014
lhumerus -33.2898 1.17948 89.2548
lradius 30.0471
lwrist 3.22925
lhand -18.9731 22.1367
lfingers 7.12502
lthumb 7.33115 51.9897
rfemur -49.4281 -9.21434 26.8859
rtibia 74.3604
rfoot -27.5451 2.19935
rtoes 18.1824
lfemur 8.5827 0.710486 -19.2222
ltibia 10.941
lfoot 10.6546 -9.20508
ltoes -3.22576
